<svg version="1.2" baseProfile="tiny-ps" xmlns="http://www.w3.org/2000/svg" viewBox="0 0 1500 1000" width="1500" height="1000">
	<title>2634443-ai</title>
	<defs>
		<linearGradient id="grd1" gradientUnits="userSpaceOnUse"  x1="269.926" y1="741.012" x2="301.638" y2="262.161">
			<stop offset="0" stop-color="#3ec6c4"  />
			<stop offset="1" stop-color="#3798d3"  />
		</linearGradient>
		<linearGradient id="grd2" gradientUnits="userSpaceOnUse"  x1="296.241" y1="741.012" x2="327.953" y2="262.161">
			<stop offset="0" stop-color="#3ec6c4"  />
			<stop offset="1" stop-color="#3798d3"  />
		</linearGradient>
		<linearGradient id="grd3" gradientUnits="userSpaceOnUse"  x1="279.103" y1="395.908" x2="279.103" y2="312.228">
			<stop offset="0" stop-color="#fbded0"  />
			<stop offset="1" stop-color="#ffffff"  />
		</linearGradient>
		<linearGradient id="grd4" gradientUnits="userSpaceOnUse"  x1="833.329" y1="440.906" x2="838.605" y2="359.657">
			<stop offset="0" stop-color="#fbded0"  />
			<stop offset="1" stop-color="#ffffff"  />
		</linearGradient>
		<linearGradient id="grd5" gradientUnits="userSpaceOnUse"  x1="436.517" y1="451.174" x2="662.785" y2="451.174">
			<stop offset="0" stop-color="#3ec6c4"  />
			<stop offset="1" stop-color="#3798d3"  />
		</linearGradient>
		<linearGradient id="grd6" gradientUnits="userSpaceOnUse"  x1="412.794" y1="768.409" x2="410.637" y2="658.386">
			<stop offset="0" stop-color="#fbded0"  />
			<stop offset="1" stop-color="#ffffff"  />
		</linearGradient>
		<linearGradient id="grd7" gradientUnits="userSpaceOnUse"  x1="902.998" y1="500.438" x2="1125.157" y2="457.472">
			<stop offset="0" stop-color="#3ec6c4"  />
			<stop offset="1" stop-color="#3798d3"  />
		</linearGradient>
		<linearGradient id="grd8" gradientUnits="userSpaceOnUse"  x1="914.077" y1="758.58" x2="911.92" y2="648.557">
			<stop offset="0" stop-color="#fbded0"  />
			<stop offset="1" stop-color="#ffffff"  />
		</linearGradient>
		<linearGradient id="grd9" gradientUnits="userSpaceOnUse"  x1="540.53" y1="307.383" x2="604.53" y2="290.844">
			<stop offset="0" stop-color="#3ec6c4"  />
			<stop offset="1" stop-color="#3798d3"  />
		</linearGradient>
		<linearGradient id="grd10" gradientUnits="userSpaceOnUse"  x1="458.394" y1="317.397" x2="595.955" y2="317.397">
			<stop offset="0" stop-color="#3ec6c4"  />
			<stop offset="1" stop-color="#3798d3"  />
		</linearGradient>
		<linearGradient id="grd11" gradientUnits="userSpaceOnUse"  x1="354.277" y1="92.653" x2="459.028" y2="92.653">
			<stop offset="0" stop-color="#3cadbd"  />
			<stop offset="1" stop-color="#b4dc8f"  />
		</linearGradient>
		<linearGradient id="grd12" gradientUnits="userSpaceOnUse"  x1="360.102" y1="119.208" x2="343.151" y2="119.208">
			<stop offset="0" stop-color="#7cd5c3"  />
			<stop offset="1" stop-color="#3c84c7"  />
		</linearGradient>
		<linearGradient id="grd13" gradientUnits="userSpaceOnUse"  x1="363.203" y1="133.616" x2="343.061" y2="133.616">
			<stop offset="0" stop-color="#3ec6c4"  />
			<stop offset="1" stop-color="#3798d3"  />
		</linearGradient>
		<linearGradient id="grd14" gradientUnits="userSpaceOnUse"  x1="363.239" y1="143.246" x2="344.72" y2="143.246">
			<stop offset="0" stop-color="#7cd5c3"  />
			<stop offset="1" stop-color="#3c84c7"  />
		</linearGradient>
		<linearGradient id="grd15" gradientUnits="userSpaceOnUse"  x1="459.028" y1="106.556" x2="520.627" y2="106.556">
			<stop offset="0" stop-color="#3ec6c4"  />
			<stop offset="1" stop-color="#3798d3"  />
		</linearGradient>
		<linearGradient id="grd16" gradientUnits="userSpaceOnUse"  x1="432.715" y1="113.122" x2="461.462" y2="113.122">
			<stop offset="0" stop-color="#fab180"  />
			<stop offset="1" stop-color="#ff8447"  />
		</linearGradient>
		<linearGradient id="grd17" gradientUnits="userSpaceOnUse"  x1="616.01" y1="158.94" x2="615.037" y2="194.276">
			<stop offset="0" stop-color="#4f5fb2"  />
			<stop offset="1" stop-color="#203ca0"  />
		</linearGradient>
		<linearGradient id="grd18" gradientUnits="userSpaceOnUse"  x1="695.337" y1="161.248" x2="692.743" y2="243.265">
			<stop offset="0" stop-color="#4f5fb2"  />
			<stop offset="1" stop-color="#203ca0"  />
		</linearGradient>
		<linearGradient id="grd19" gradientUnits="userSpaceOnUse"  x1="681.13" y1="160.732" x2="680.158" y2="196.068">
			<stop offset="0" stop-color="#4f5fb2"  />
			<stop offset="1" stop-color="#203ca0"  />
		</linearGradient>
		<linearGradient id="grd20" gradientUnits="userSpaceOnUse"  x1="442.005" y1="141.192" x2="678.014" y2="141.192">
			<stop offset="0" stop-color="#4f5fb2"  />
			<stop offset="1" stop-color="#203ca0"  />
		</linearGradient>
		<linearGradient id="grd21" gradientUnits="userSpaceOnUse"  x1="544.627" y1="105.76" x2="586.896" y2="105.76">
			<stop offset="0" stop-color="#fab180"  />
			<stop offset="1" stop-color="#ff8447"  />
		</linearGradient>
		<linearGradient id="grd22" gradientUnits="userSpaceOnUse"  x1="566.988" y1="160.203" x2="678.014" y2="160.203">
			<stop offset="0" stop-color="#26278d"  />
			<stop offset="1" stop-color="#6a2f8f"  />
		</linearGradient>
		<linearGradient id="grd23" gradientUnits="userSpaceOnUse"  x1="593.28" y1="102.661" x2="648.137" y2="102.661">
			<stop offset="0" stop-color="#fab180"  />
			<stop offset="1" stop-color="#ff8447"  />
		</linearGradient>
		<linearGradient id="grd24" gradientUnits="userSpaceOnUse"  x1="398.057" y1="890.561" x2="400.117" y2="748.459">
			<stop offset="0" stop-color="#7cd5c3"  />
			<stop offset="1" stop-color="#3c84c7"  />
		</linearGradient>
		<linearGradient id="grd25" gradientUnits="userSpaceOnUse"  x1="1098.157" y1="894.225" x2="1098.157" y2="763.169">
			<stop offset="0" stop-color="#7cd5c3"  />
			<stop offset="1" stop-color="#3c84c7"  />
		</linearGradient>
		<linearGradient id="grd26" gradientUnits="userSpaceOnUse"  x1="459.775" y1="894.225" x2="459.775" y2="763.169">
			<stop offset="0" stop-color="#7cd5c3"  />
			<stop offset="1" stop-color="#3c84c7"  />
		</linearGradient>
		<linearGradient id="grd27" gradientUnits="userSpaceOnUse"  x1="729.326" y1="517.916" x2="932.105" y2="559.36">
			<stop offset="0" stop-color="#3ec6c4"  />
			<stop offset="1" stop-color="#3798d3"  />
		</linearGradient>
		<linearGradient id="grd28" gradientUnits="userSpaceOnUse"  x1="666.848" y1="763.111" x2="664.734" y2="655.279">
			<stop offset="0" stop-color="#fbded0"  />
			<stop offset="1" stop-color="#ffffff"  />
		</linearGradient>
		<linearGradient id="grd29" gradientUnits="userSpaceOnUse"  x1="883.62" y1="394.12" x2="967.244" y2="394.12">
			<stop offset="0" stop-color="#4f5fb2"  />
			<stop offset="1" stop-color="#203ca0"  />
		</linearGradient>
	</defs>
	<style>
		tspan { white-space:pre }
		.shp0 { fill: #e9fdff } 
		.shp1 { opacity: 0.369;fill: url(#grd1) } 
		.shp2 { opacity: 0.369;fill: url(#grd2) } 
		.shp3 { fill: url(#grd3) } 
		.shp4 { fill: url(#grd4) } 
		.shp5 { fill: url(#grd5) } 
		.shp6 { fill: url(#grd6) } 
		.shp7 { fill: url(#grd7) } 
		.shp8 { fill: url(#grd8) } 
		.shp9 { fill: url(#grd9) } 
		.shp10 { fill: #111023 } 
		.shp11 { fill: url(#grd10) } 
		.shp12 { fill: url(#grd11) } 
		.shp13 { fill: url(#grd12) } 
		.shp14 { fill: url(#grd13) } 
		.shp15 { fill: url(#grd14) } 
		.shp16 { fill: url(#grd15) } 
		.shp17 { fill: url(#grd16) } 
		.shp18 { fill: #5b2b89 } 
		.shp19 { fill: url(#grd17) } 
		.shp20 { fill: url(#grd18) } 
		.shp21 { fill: url(#grd19) } 
		.shp22 { fill: url(#grd20) } 
		.shp23 { fill: url(#grd21) } 
		.shp24 { opacity: 0.38;mix-blend-mode: overlay;fill: url(#grd22) } 
		.shp25 { fill: url(#grd23) } 
		.shp26 { fill: #f79244 } 
		.shp27 { fill: #ffffff } 
		.shp28 { opacity: 0.502;mix-blend-mode: multiply;fill: url(#grd24) } 
		.shp29 { fill: url(#grd25) } 
		.shp30 { fill: url(#grd26) } 
		.shp31 { fill: url(#grd27) } 
		.shp32 { fill: url(#grd28) } 
		.shp33 { fill: #2a2a2a } 
		.shp34 { fill: url(#grd29) } 
	</style>
	<g id="BACKGROUND">
		<path id="&lt;Path&gt;" class="shp0" d="M1500 1000L0 1000L0 0L1500 0L1500 1000Z" />
	</g>
	<g id="OBJECTS">
		<g id="&lt;Group&gt;">
			<path id="&lt;Path&gt;" class="shp1" d="M408.32 746.91L305.35 746.91C277.8 718.28 270.43 672.67 286.89 636.51C302.58 602.04 336.26 579.27 356.67 547.37C400.22 479.29 379.17 377.86 438.36 322.82C467.94 295.31 510.48 287.36 550.75 284.14C591.02 280.92 632.65 281.01 669.89 265.36C715.81 246.06 750.43 204.6 797.74 188.97C850.86 171.43 914.4 193.32 945.44 239.86C964.86 268.98 972.19 305.56 995.16 331.97C1032.3 374.68 1097.74 377.99 1144.06 410.52C1175.83 432.82 1197.28 469.25 1201.38 507.85C1206.32 554.46 1188.63 607.41 1216.57 645.04C1230.2 663.38 1252.3 673.73 1266.98 691.24C1281.61 708.7 1285.73 724.6 1281.13 746.91L408.32 746.91Z" />
			<path id="&lt;Path&gt;" class="shp2" d="M434.64 746.91L331.67 746.91C304.12 718.28 296.75 672.67 313.2 636.51C328.89 602.04 362.58 579.27 382.98 547.37C426.54 479.29 405.49 377.86 464.67 322.82C494.25 295.31 536.8 287.36 577.07 284.14C617.34 280.92 658.96 281.01 696.2 265.36C742.13 246.06 776.75 204.6 824.05 188.97C877.17 171.43 940.71 193.32 971.75 239.86C991.18 268.98 998.51 305.56 1021.48 331.97C1058.62 374.68 1124.05 377.99 1170.38 410.52C1202.15 432.82 1223.6 469.25 1227.69 507.85C1232.64 554.46 1214.94 607.41 1242.89 645.04C1256.52 663.38 1278.61 673.73 1293.3 691.24C1307.93 708.7 1312.05 724.6 1307.44 746.91L434.64 746.91Z" />
		</g>
		<path id="&lt;Path&gt;" class="shp3" d="M671.61 394.32L667.37 394.46L284.45 394.46L283.53 394.58C279.73 369.18 299.61 343.38 324.63 336.54C346.51 330.56 372.11 335.88 390.43 322.5C406.85 310.52 410.93 288.12 421.67 270.86C428.35 260.12 437.87 251.16 449.01 245.18C462.97 237.68 480.39 235.06 494.71 241.84C520.07 253.88 524.93 287.48 541.89 309.86C545.67 314.86 550.43 319.52 556.49 321.18C562.07 322.72 567.99 321.52 573.71 320.5C592.45 317.2 614.93 317.5 626.59 332.54C632.07 339.62 634.03 348.7 637.07 357.1C640.11 365.52 645.09 374.16 653.51 377.18C657.55 378.6 662.13 378.64 665.69 381.02C669.97 383.88 671.35 388.98 671.61 394.32Z" />
		<path id="&lt;Path&gt;" class="shp4" d="M1287.54 442.68L841 442.68C837.44 438 837 430.76 839.54 425.2C842.84 417.9 849.72 412.94 856.58 408.82C863.44 404.68 870.74 400.88 875.88 394.74C885.74 382.96 885.16 366.06 887.34 350.86C889.9 332.82 897.46 314.96 911.1 302.86C916.5 298.06 922.76 294.26 929.32 291.22C948.02 282.52 971.18 280.34 988.66 291.3C1005.38 301.78 1013.58 321.72 1028.16 335.02C1031.6 338.18 1035.54 341 1040.1 342.06C1053.16 345.06 1064.26 333.22 1074.06 324.08C1087.98 311.1 1106.58 301.4 1125.46 303.82C1147.66 306.7 1164.82 325.74 1173.24 346.48C1176.76 355.12 1179.44 364.68 1186.44 370.82C1204.4 386.56 1234.72 368.92 1255.66 380.36C1263.52 384.66 1268.78 392.48 1272.98 400.4C1279.98 413.62 1284.92 427.94 1287.54 442.68Z" />
		<g id="&lt;Group&gt;">
			<path id="&lt;Compound Path&gt;" fill-rule="evenodd" class="shp5" d="M662.79 690.42L630.66 690.42L630.66 746.89L552.84 746.89L552.84 690.42L436.52 690.42L436.52 632.56L557.83 455.17L630.66 455.17L630.66 631.56L662.79 631.56L662.79 690.42ZM552.84 631.56L552.84 597.64C552.84 591.25 553.07 582.64 553.54 571.8C554.01 560.96 554.37 555.27 554.64 554.74L552.45 554.74C547.92 564.99 542.8 574.56 537.08 583.47L504.76 631.56L552.84 631.56Z" />
			<path id="&lt;Compound Path&gt;" fill-rule="evenodd" class="shp6" d="M641.53 690.44L609.41 690.44L609.41 746.91L531.59 746.91L531.59 690.44L415.27 690.44L415.27 632.57L536.58 455.19L609.41 455.19L609.41 631.58L641.53 631.58L641.53 690.44ZM531.59 631.58L531.59 597.66C531.59 591.27 531.82 582.66 532.29 571.82C532.76 560.98 533.12 555.29 533.39 554.76L531.19 554.76C526.67 565 521.55 574.58 515.83 583.49L483.51 631.58L531.59 631.58Z" />
		</g>
		<g id="&lt;Group&gt;">
			<path id="&lt;Compound Path&gt;" fill-rule="evenodd" class="shp7" d="M1149.73 696.42L1139.05 698.48L1148.41 746.9L1069.15 746.9L1062.65 713.24L948.43 735.34L937.45 678.52L1022.87 481.34L1094.39 467.5L1127.87 640.68L1138.55 638.62L1159.41 634.58L1170.59 692.38L1149.73 696.42ZM1051.47 655.46L1045.03 622.16C1043.81 615.88 1042.41 607.38 1040.81 596.66C1039.21 585.92 1038.49 580.26 1038.65 579.7L1036.49 580.1C1033.99 591.02 1030.79 601.4 1026.87 611.24L1023.07 620.22L1004.27 664.58L1030.61 659.5L1051.47 655.46Z" />
			<path id="&lt;Compound Path&gt;" fill-rule="evenodd" class="shp8" d="M1139.05 698.48L1118.19 702.52L1126.77 746.9L1047.51 746.9L1041.79 717.3L948.43 735.34L927.57 739.38L916.59 682.58L1002.01 485.38L1022.87 481.34L1073.51 471.56L1107.01 644.74L1138.55 638.64L1149.73 696.42L1139.05 698.48ZM1019.95 600.7C1018.35 589.98 1017.63 584.32 1017.79 583.74L1015.63 584.16C1013.13 595.08 1009.93 605.46 1006.01 615.28L983.39 668.64L1030.61 659.5L1024.17 626.2C1023.83 624.38 1023.45 622.4 1023.07 620.22C1022.13 614.86 1021.09 608.34 1019.95 600.7Z" />
		</g>
		<g id="&lt;Group&gt;">
			<g id="&lt;Group&gt;">
				<path id="&lt;Path&gt;" class="shp9" d="M673.65 598.94L626.14 598.94L595.96 377.96C566.88 346.2 535.66 327.34 502.29 321.4L549.97 316.26L657.43 319.18L673.65 598.94Z" />
				<path id="&lt;Path&gt;" class="shp10" d="M486.14 477.46C468.14 503.8 463.14 528.27 471.13 550.89L521.35 477.46L514.83 468.7L486.14 477.46Z" />
				<path id="&lt;Path&gt;" class="shp10" d="M626.14 598.94L624.52 609.14C614.98 610.47 609.94 617.95 609.41 631.58L646.63 631.58L666.86 611.83L668.75 598.94L626.14 598.94Z" />
				<path id="&lt;Path&gt;" class="shp11" d="M568.67 377.8L509.13 375.58L518.8 466.76L478.45 481.22L455.19 368.62C448.39 347.64 462.61 325.7 484.53 323.32L502.27 321.4L502.29 321.4C535.66 327.34 566.88 346.2 595.96 377.96L568.67 377.8Z" />
			</g>
			<g id="&lt;Group&gt;">
				<path id="&lt;Path&gt;" class="shp12" d="M459.03 123.31L459.03 125.96L455.8 126.37C454.97 124.59 454.09 123.16 453.2 122.39C448.89 118.67 445.9 115.75 442.82 117.53C440.49 118.89 440.67 125.25 440.89 128.26L432.11 129.38L354.31 139.25L354.28 139.1C359.33 137.91 363.24 128.86 363.24 117.86C363.24 107 359.43 98.06 354.49 96.65L459.03 108.45L459.03 110.56L459.03 123.31Z" />
				<path id="&lt;Path&gt;" class="shp13" d="M360.1 102.35C359.89 102.68 359.69 103 359.51 103.34C358.39 105.51 357.87 107.98 356.48 109.96C355.47 111.44 354.01 112.58 352.35 113.22C350.6 113.91 348.69 114.02 346.81 114.27C345.57 114.43 344.29 114.69 343.15 115.21C343.75 104.82 347.84 96.74 352.87 96.47L354.49 96.65C356.66 97.27 358.6 99.32 360.1 102.35Z" />
				<path id="&lt;Path&gt;" class="shp14" d="M363.2 116.11C363.17 116.15 363.15 116.18 363.11 116.22C361.83 117.93 361.22 120.08 360.03 121.84C358.64 123.92 356.42 125.43 353.99 125.99C351.73 126.5 349.3 126.23 347.24 127.25C346.2 127.8 345.35 128.62 344.72 129.62C343.67 126.24 343.06 122.21 343.06 117.86C343.06 116.96 343.08 116.07 343.15 115.21C344.29 114.69 345.57 114.43 346.81 114.27C348.69 114.02 350.6 113.91 352.35 113.22C354.01 112.58 355.47 111.44 356.48 109.96C357.87 107.98 358.39 105.51 359.51 103.34C359.69 103 359.89 102.68 360.1 102.35C361.85 105.89 363 110.7 363.2 116.11Z" />
				<path id="&lt;Path&gt;" class="shp15" d="M363.24 117.86C363.24 128.86 359.33 137.91 354.28 139.1C353.92 139.19 353.52 139.25 353.14 139.25C349.62 139.25 346.52 135.42 344.72 129.62C345.35 128.62 346.2 127.8 347.24 127.25C349.3 126.23 351.73 126.5 353.99 125.99C356.42 125.43 358.64 123.92 360.03 121.84C361.22 120.08 361.83 117.93 363.11 116.22C363.15 116.18 363.17 116.15 363.2 116.11C363.22 116.69 363.24 117.26 363.24 117.86Z" />
				<path id="&lt;Path&gt;" class="shp10" d="M520.63 112.63L552.08 112.63C548.79 113.95 546 115.44 544.74 116.63C543.74 117.55 544.18 119.23 545.4 121.38L520.63 121.38L520.63 112.63Z" />
				<path id="&lt;Path&gt;" class="shp10" d="M590.32 117.9L590.32 121.38L573.28 121.38C571.64 117.59 570.41 114.4 570 112.63L590.32 112.63L590.32 117.9Z" />
				<path id="&lt;Path&gt;" class="shp16" d="M520.63 121.38L520.63 123.31L459.03 123.31L459.03 110.56L520.63 110.56L520.63 112.63L520.63 121.38Z" />
				<path id="&lt;Path&gt;" class="shp17" d="M461.46 145.09L447.9 155.4C436.93 143.9 431.66 135.22 432.11 129.38L440.89 128.26C440.67 125.25 440.49 118.89 442.82 117.53C445.9 115.75 448.89 118.67 453.2 122.39C454.09 123.16 454.97 124.59 455.8 126.37C457.92 130.9 459.8 137.14 461.46 145.09Z" />
				<path id="&lt;Path&gt;" class="shp18" d="M370.21 96.73C369.31 94.75 366.38 96.44 367.28 98.41C372.85 110.61 372.14 124.04 365.45 135.64C364.37 137.53 367.3 139.22 368.38 137.33C375.68 124.65 376.29 110.03 370.21 96.73Z" />
			</g>
			<g id="&lt;Group&gt;">
				<path id="&lt;Path&gt;" class="shp19" d="M611.73 158.7L611.73 169.16L599.21 157.33L611.73 158.7Z" />
				<path id="&lt;Path&gt;" class="shp20" d="M611.73 169.16L624.33 181.06L636.36 192.42C654.73 179.56 667.48 173.07 674.61 172.97C675.36 172.95 676.08 173 676.79 173.11C686.22 174.45 691.99 185.35 690.33 195.81C688.55 207.08 688.87 219.56 678.01 221.58C670.78 222.94 651.22 227.48 619.34 235.21L566.99 164.2L573.16 159.89L586.9 150.28L589.67 148.33L595.71 154.03L599.21 157.33L611.73 169.16Z" />
				<path id="&lt;Path&gt;" class="shp21" d="M645.52 160.88L676.79 173.11C676.08 173 675.36 172.95 674.61 172.97C667.48 173.07 654.73 179.56 636.36 192.42L624.33 181.06L645.52 160.88Z" />
				<path id="&lt;Path&gt;" class="shp22" d="M678.01 221.58L659.86 271.03L657.42 319.17C656 319.43 654.06 319.73 651.6 320.08C634.29 322.55 582.41 328.46 549.97 316.25L562.61 256.44L556.76 209.27L486.26 217.06L442.01 159.89L447.9 155.4L461.46 145.09L503.28 185.93L568.72 157.33C570.31 158.47 571.78 159.33 573.16 159.89L566.99 164.2L619.34 235.21C651.22 227.48 670.78 222.94 678.01 221.58Z" />
				<path id="&lt;Path&gt;" class="shp23" d="M586.9 150.28L573.16 159.89C571.79 159.33 570.31 158.47 568.72 157.33C565.62 155.11 561.96 151.45 561.51 146.3C560.91 139.37 549.23 128.1 545.4 121.38C544.18 119.23 543.74 117.55 544.74 116.63C546 115.44 548.79 113.95 552.08 112.63C559.34 109.74 569.03 107.78 569.91 112.27C569.93 112.38 569.96 112.5 570 112.63C570.41 114.4 571.64 117.59 573.28 121.38C576.6 129.12 581.14 138.75 586.9 150.28Z" />
				<path id="&lt;Path&gt;" class="shp24" d="M659.86 271.03C606.46 259.7 575.5 224.09 566.99 164.2L619.34 235.27L678.01 221.58L659.86 271.03Z" />
			</g>
			<g id="&lt;Group&gt;">
				<path id="&lt;Path&gt;" class="shp25" d="M645.07 117.23C646.76 116.76 648.48 117.1 649.16 119.81C650.22 123.93 648.44 128.47 643.81 133.42L645.52 160.88L624.33 181.06L632.63 157.33L611.73 158.7L599.21 157.33L595.71 154.03C594.09 138.85 593.28 126.8 593.28 117.9C593.28 114.81 593.41 112.23 593.73 110.56L593.84 109.91C603.6 111.55 615.26 110.47 628.8 106.66C630.7 125.15 632.95 134.56 635.55 134.88C638.14 135.19 639.85 130.17 640.65 119.81C642.13 118.48 643.6 117.62 645.07 117.23Z" />
				<path id="&lt;Path&gt;" class="shp10" d="M645.23 97.07L645.07 117.23C643.6 117.62 642.13 118.48 640.65 119.81C639.85 130.17 638.14 135.19 635.55 134.88C632.95 134.56 630.7 125.15 628.8 106.66C615.26 110.47 603.6 111.55 593.84 109.91L593.84 109.89C589.24 109.13 585.22 107.54 582.55 104.73C571.35 92.94 575.25 86.25 591.3 89.89C607.35 93.53 640.62 74.22 645.23 97.07Z" />
				<path id="&lt;Path&gt;" class="shp26" d="M632.63 157.33L624.33 181.06L611.73 169.16L611.73 158.7L632.63 157.33Z" />
				<path id="&lt;Path&gt;" class="shp10" d="M592.44 113.57C595.66 111.95 599.01 111.76 602.4 112.98C604.47 113.72 602.91 116.77 600.87 116.03C598.73 115.26 596.33 115.42 594.3 116.43C592.36 117.41 590.47 114.55 592.44 113.57Z" />
				<path id="&lt;Path&gt;" class="shp10" d="M626 121.55C626.11 123.56 625.09 125.25 623.74 125.32C622.38 125.39 621.2 123.81 621.09 121.8C620.99 119.79 622 118.1 623.36 118.03C624.71 117.96 625.9 119.53 626 121.55Z" />
				<path id="&lt;Path&gt;" class="shp10" d="M627.84 112.75C624.46 111.47 621.11 111.63 617.87 113.2C615.88 114.16 617.75 117.02 619.71 116.08C621.75 115.09 624.17 114.99 626.28 115.79C628.32 116.56 629.89 113.52 627.84 112.75Z" />
				<path id="&lt;Path&gt;" class="shp26" d="M604.11 132.96C605.2 127.79 607.87 122.53 609.67 117.56C610.05 116.53 611.57 117.31 611.2 118.33C610.06 121.46 608.93 124.59 607.79 127.73C607.39 128.81 606.43 130.61 606.32 131.75C605.95 135.65 607.74 135.35 609.76 136.29C610.76 136.75 609.98 138.28 608.99 137.82C606.51 136.66 603.36 136.5 604.11 132.96Z" />
				<path id="&lt;Path&gt;" class="shp10" d="M602.22 122.1C600.62 120.82 598.81 119.97 596.76 119.71C595.5 119.55 594.98 121.48 596.26 121.64C597.29 121.78 598.27 122.07 599.18 122.51C598.11 122.86 597.05 123.2 595.98 123.55C594.76 123.95 595.27 125.88 596.5 125.48C598.25 124.91 600.01 124.34 601.77 123.77C602.41 123.56 602.85 122.61 602.22 122.1Z" />
				<path id="&lt;Path&gt;" class="shp27" d="M614.94 148.21C614.94 151.76 612.94 154.64 610.49 154.64C608.03 154.64 606.04 151.76 606.04 148.21C606.04 144.66 608.03 141.78 610.49 141.78C612.94 141.78 614.94 144.66 614.94 148.21Z" />
			</g>
		</g>
		<g id="&lt;Group&gt;">
			<path id="&lt;Path&gt;" class="shp28" d="M1223.51 746.91L420.99 746.91C392.2 766.02 399.21 777.19 442.01 780.43C506.2 785.28 606.33 789.87 603.86 811.71C601.39 833.55 543.42 829.24 543.42 867.8C543.42 893.51 632.55 903.39 810.82 897.46C911.52 898.78 969.05 890.93 983.39 873.91C1004.9 848.38 922.49 825.01 937.45 814.94C952.4 804.88 1060.99 835.08 1077.17 810.63C1093.35 786.18 1073.93 770.72 1103.78 767.48C1133.62 764.25 1218.47 775.95 1223.51 746.91Z" />
			<path id="&lt;Path&gt;" class="shp29" d="M1223.51 797.69C1223.51 807.22 1196.34 814.94 1162.83 814.94C1129.32 814.94 1102.16 807.22 1102.16 797.69C1102.16 788.15 1129.32 780.43 1162.83 780.43C1196.34 780.43 1223.51 788.15 1223.51 797.69Z" />
			<path id="&lt;Path&gt;" class="shp30" d="M569.84 812.61C569.84 819.85 546.1 825.73 516.81 825.73C487.52 825.73 463.78 819.85 463.78 812.61C463.78 805.36 487.52 799.48 516.81 799.48C546.1 799.48 569.84 805.36 569.84 812.61Z" />
			<path id="&lt;Path&gt;" class="shp0" d="M881.03 863.75C881.03 870.16 854.07 875.35 820.8 875.35C787.53 875.35 760.56 870.16 760.56 863.75C760.56 857.35 787.53 852.16 820.8 852.16C854.07 852.16 881.03 857.35 881.03 863.75Z" />
		</g>
		<g id="&lt;Group&gt;">
			<g id="&lt;Group&gt;">
				<path id="&lt;Compound Path&gt;" class="shp31" d="M900.47 592.58C888.11 564.32 864.93 546.72 830.93 539.78C827.23 539.02 823.61 538.42 820.07 537.98C790.07 534.18 765.33 541.34 745.85 559.46C724.05 579.7 707.97 615.24 697.57 666.08C691.21 697.22 689.43 724.16 692.25 746.9L766.57 746.9C765.63 733.62 768.25 711.9 774.41 681.78C781.07 649.2 787.67 627.2 794.21 615.76C798.01 609.12 802.31 604.74 807.11 602.62C810.57 601.08 814.31 600.72 818.29 601.54C827.81 603.5 833.29 611.24 834.73 624.76C836.17 638.3 833.65 660.9 827.19 692.56C822.33 716.3 817.45 734.4 812.57 746.9L894.05 746.9C897.83 735.2 901.15 722.32 904.01 708.26C905.91 698.96 907.41 690.04 908.49 681.5C913.15 645.1 910.47 615.46 900.47 592.58Z" />
				<path id="&lt;Compound Path&gt;" class="shp32" d="M879.65 588.34C868.55 562.96 848.69 546.16 820.07 537.98C816.85 537.06 813.53 536.24 810.09 535.54C775.17 528.4 746.81 534.96 725.01 555.22C703.23 575.48 687.13 611.02 676.75 661.84C674.63 672.18 673.03 682.08 671.93 691.5C669.51 712.2 669.53 730.68 672.01 746.9L746.23 746.9C746.13 746.42 746.07 745.94 746.01 745.44C744.45 732.5 746.97 709.86 753.57 677.54C760.23 644.96 766.83 622.96 773.39 611.54C779.93 600.1 787.95 595.36 797.47 597.32C801.37 598.12 804.59 599.88 807.11 602.62C810.81 606.58 813.05 612.54 813.91 620.52C815.35 634.06 812.83 656.66 806.37 688.32C800.93 714.88 795.47 734.4 789.99 746.9L871.85 746.9C876.17 734.1 879.95 719.82 883.19 704.04C893.17 655.16 891.99 616.6 879.65 588.34Z" />
			</g>
			<g id="&lt;Group&gt;">
				<path id="&lt;Path&gt;" class="shp33" d="M936.38 397.74L935.88 398.12L883.62 438.8L851 464.18L823.84 539.34L816.3 536.62L844.28 459.28L931.48 391.42L936.38 397.74Z" />
			</g>
			<path id="&lt;Path&gt;" class="shp34" d="M961.42 566.42C955.48 573.48 947.38 578.32 939.44 583.02L938.9 582.08C942.04 578.06 945.36 573.34 944.42 568.32C943.76 564.9 941.24 562.18 938.66 559.88C934.28 556.02 929.4 552.76 925.22 548.7C921.04 544.64 917.5 539.54 916.82 533.76C915.94 526.16 920.04 518.98 921.64 511.5C922.28 508.5 922.5 505.3 921.3 502.48C918.62 496.12 910.52 494.66 904.1 492.1C898.36 489.78 892.96 485.48 891.36 479.5C889.04 470.82 895.22 461.94 894.38 453C893.8 446.76 889.36 441.18 883.62 438.8L935.88 398.12C944.74 405.8 952.38 415.98 952.48 427.6C952.52 434.96 949.54 441.96 947.42 449C946.58 451.84 945.86 454.8 946.38 457.7C947.2 462.14 950.74 465.5 954 468.64C960.74 475.1 967.52 482.96 967.4 492.3C967.28 502.78 958.34 512.12 959.9 522.48C960.9 529.1 966 534.38 968.04 540.74C970.84 549.54 967.36 559.36 961.42 566.42Z" />
		</g>
	</g>
</svg>