<svg xmlns="http://www.w3.org/2000/svg" viewBox="0 0 55.02 45.19"><defs><style>.cls-1{fill:#fefefe;}</style></defs><title>blogW</title><g id="Слой_2" data-name="Слой 2"><g id="Слой_1-2" data-name="Слой 1"><path id="Контур_16" data-name="Контур 16" class="cls-1" d="M55,22.31a2.68,2.68,0,0,0-.62-1.22,2.37,2.37,0,0,0-.75-.66l-.83-.34a0,0,0,0,1,0,0l-.15-6.71h0a1.7,1.7,0,0,0-.38-.5,1.27,1.27,0,0,0-.78-.2c-1.25,0-12.51.64-14.39,1.15-.06,0-.24.07-.3,0s.32-.56.41-.64A6.47,6.47,0,0,0,38.33,10a7.49,7.49,0,0,0-.79-4.62A8.65,8.65,0,0,0,35.8,3.13,12.82,12.82,0,0,0,22,1.21a9.89,9.89,0,0,0-4.38,3.84,7.51,7.51,0,0,0-1,4.12,8.71,8.71,0,0,0,1.51,4.64s0,0,0,0l-.74-.12A90.62,90.62,0,0,0,3,12.67H3a.88.88,0,0,0-.46.21.71.71,0,0,0-.23.56c0,.46,0,3.07,0,6.65,0,0,0,0,0,0C.48,21,.06,21.63,0,22.11v2.07a8.87,8.87,0,0,0,.19,2.57A2.56,2.56,0,0,0,1.56,28.5c.43.15.48.07.58.3a5.4,5.4,0,0,1,.08.69H4.35a.9.9,0,0,1,.34-.66c.37-.28.83-.13,1.45-.26a3.1,3.1,0,0,0,1.47-.88A4.86,4.86,0,0,0,8.82,22.6a3.57,3.57,0,0,0-1-1.6,4.15,4.15,0,0,0-2.07-1.06c-.48-.09-1.37-.15-1.37-.15s0-1.84,0-5.31l1.56,0c1.21,0,2.14.09,2.64.14,5.95.51,8.92.76,12.54,1.62a51.25,51.25,0,0,1,5.27,1.55l.05,24.63c-.56-.25-1.63-.73-3-1.24A60.84,60.84,0,0,0,4.48,38c-.1-3.16-.15-5.72-.15-7.21H2.26c0,1.09,0,3.62,0,8.23h0a.9.9,0,0,0,.22.36,1.53,1.53,0,0,0,.89.41h0c1.84,0,3.37,0,4.47.12a46.41,46.41,0,0,1,10.73,1.74c1.26.38,2.45.82,2.53.85,1.13.41,2.2.87,4.34,1.8.65.27,1.93.83,2.08.9h0a62.65,62.65,0,0,1,12.1-4.29A44.73,44.73,0,0,1,44.89,40c3.73-.24,6.3-.38,7-.34a1.07,1.07,0,0,0,.5-.1,1,1,0,0,0,.38-1c0-1.39-.07-5.81-.09-7.81l0,0H50.74c0,1.49-.05,4-.15,7.21a60.79,60.79,0,0,0-18.91,3.17c-1.4.51-2.47,1-3,1.25l.05-24.64A50.53,50.53,0,0,1,34,16.22c3.62-.86,6.59-1.11,12.53-1.62.51,0,1.43-.12,2.64-.13.66,0,1.2,0,1.56,0,0,3.47,0,5.31,0,5.31s-.89.05-1.38.14A4.1,4.1,0,0,0,47.24,21a3.57,3.57,0,0,0-1,1.6,4.85,4.85,0,0,0,1.22,5.08,3.1,3.1,0,0,0,1.47.88c.61.13,1.08,0,1.45.26a.89.89,0,0,1,.33.66h1.9l.07-.06a4.39,4.39,0,0,0,0-.58c0-.12.18-.06.43-.15a2.22,2.22,0,0,0,.78-.5,2.7,2.7,0,0,0,.75-.83A2.81,2.81,0,0,0,55,26.05S55.05,24.2,55,22.31ZM5.08,21.6a1.7,1.7,0,0,1,1.85,1.52v2.05A2,2,0,0,1,4.77,27H3.39a.85.85,0,0,1-.91-.75V22.26a.76.76,0,0,1,.81-.67Zm28.63-7.41a4,4,0,0,1-.68.48c-1.05.59-1.67.29-3.2.82l-1.19.42a4,4,0,0,1-1.17.3,3.69,3.69,0,0,1-1.3-.39l-1.46-.42c-.61-.18-1.48-.41-2.59-.69-.48-.33-3.48-2.47-3.44-5.74.05-3.55,3.69-7.23,8.79-7.23,5.35,0,8.73,4.05,8.78,7.23a7.55,7.55,0,0,1-2.54,5.22ZM53,26.21a.85.85,0,0,1-.92.75H50.69a2,2,0,0,1-2.17-1.79V23.12a1.72,1.72,0,0,1,1.86-1.53h1.78a.77.77,0,0,1,.82.67Z"/></g></g></svg>