<svg xmlns="http://www.w3.org/2000/svg" viewBox="0 0 151.2 123.81"><defs><style>.cls-1{fill:#fff;fill-rule:evenodd;}</style></defs><title>contOW</title><g id="Слой_2" data-name="Слой 2"><g id="Слой_1-2" data-name="Слой 1"><path class="cls-1" d="M149.37,9c-5-9.73-18.92-9.14-33.81-8.94-1.36.85-5.33.25-7.24.25H33.23C24.22.33,12.74-.48,7.16,3,0,7.44-2.4,19.16,2.81,27.61A37.1,37.1,0,0,0,14.64,39.2c2.11,1.3,5.73,1.49,7.24,3.38,9.47,11.82,14,25.17,26.56,34.28,2.9,2.1,6.09,5.27,9.9,6.28-.78,1.85-6.2,5.22-7.72,7.24-4.09,5.41-7.54,10.31-10.14,17.39-1,2.8-2.76,9.82-.25,12.55,1.33,3.74,10.66,3.5,16.18,3.38,11-.23,22.92-.24,34.28-.24,5.41,0,12.24,1,16.91-.48,4.92-1.61,5.41-9.22,3.62-14.73-2.44-7.47-6.86-12.72-11.11-18.35l-2.65-2.41a17.43,17.43,0,0,0-4.11-4.11V82.9c17-8,24.05-24.81,34.77-39.11,1.82-2.43,5.81-3,8.45-4.59,4.82-3,10-7.65,12.31-13a38.64,38.64,0,0,0,1.93-6A17.23,17.23,0,0,0,149.37,9ZM21.64,33.64c-5.29-1.17-11.33-7.46-13.28-12.07a12.22,12.22,0,0,1,.73-9.9c2.08-3.2,5.26-1.73,8.21-3.62h3.86c.73,2.78,1.46,5.94,2.17,9.18C24.49,22.51,22.18,29.53,21.64,33.64Zm93.92,14.49c-5.7,9-10.91,18.32-19.55,24.39a47.32,47.32,0,0,1-8,4.58c-3.89,1.68-7.24.29-7.24,6,.61.63,1,1.68,1.69,2.17,1.8,1.23,3.63,1.89,5.31,3.14,4.29,3.22,7.75,8.13,10.86,12.56,2.78,3.94,5.83,8,5.8,14.72-9.28.4-19.14,0-29,0s-19.5.39-28.73,0c0-5.36,2-8.74,4.11-12.07A61.3,61.3,0,0,1,69.93,84.11c.3-1.17.87-2.81,0-3.87-.9-2.49-3.87-1.91-6.28-2.89A55.72,55.72,0,0,1,51.82,70.1c-7.7-5.75-11.67-14.38-16.9-22.69-2-3.12-4.56-5.9-6.52-8.94,0,0,1.36-6.91,1.69-8.21,1.15-4.47,1.7-12.11.49-17.14Q30,10.59,29.37,8.05h79.92c1.75,0,5.28.52,6.51-.24h4.83q-.84,2.78-1.69,5.55c-1.55,5.87-.89,15,.49,20.28.6,2.32.41,5.11,1.69,6.77C119.5,43.1,117.23,45.49,115.56,48.13Zm24.39-22a28.46,28.46,0,0,1-8,6.76c-1.32.8-3,.93-4.1,1.93-1.5-.89-1-4.05-1.45-6-1.71-7.46.27-16,2.65-21,5,.08,11.21.77,13.28,3.86C145.28,16,141.93,23.41,140,26.16Z"/></g></g></svg>