<svg xmlns="http://www.w3.org/2000/svg" viewBox="0 0 168.51 168.56"><defs><style>.cls-1{fill:#fefefe;}</style></defs><title>explW</title><g id="Слой_2" data-name="Слой 2"><g id="Слой_1-2" data-name="Слой 1"><g id="Слой_1-2-2" data-name="Слой 1-2"><path class="cls-1" d="M84.23,105.35A21.07,21.07,0,1,1,105.3,84.28,21.07,21.07,0,0,1,84.23,105.35Zm0-31.6A10.54,10.54,0,1,0,94.77,84.29h0A10.56,10.56,0,0,0,84.23,73.75Z"/><path class="cls-1" d="M26.29,47.41a15.81,15.81,0,1,1,15.8-15.82v0A15.82,15.82,0,0,1,26.29,47.41Zm0-21.07a5.27,5.27,0,1,0,5.27,5.27,5.27,5.27,0,0,0-5.27-5.27Z"/><path class="cls-1" d="M115.84,131.69a15.8,15.8,0,1,1,15.8-15.8A15.8,15.8,0,0,1,115.84,131.69Zm0-21.07a5.27,5.27,0,1,0,5.26,5.28h0A5.27,5.27,0,0,0,115.84,110.62Z"/><path class="cls-1" d="M84.23,168.56A84.25,84.25,0,0,1,15,36.4,5.27,5.27,0,1,1,23.89,42c-.09.15-.19.29-.29.43A73.71,73.71,0,1,0,84.25,10.54h0A72.44,72.44,0,0,0,36.85,27.93a5.26,5.26,0,1,1-7.3-7.57,4.06,4.06,0,0,1,.5-.43A82.78,82.78,0,0,1,84.23,0a84.28,84.28,0,0,1,0,168.56Z"/><path class="cls-1" d="M84.23,137A52.68,52.68,0,1,1,137,84.28a51.41,51.41,0,0,1-8.23,28.16,5.27,5.27,0,0,1-8.83-5.75,40.83,40.83,0,0,0,6.52-22.41,42.14,42.14,0,1,0-42.14,42.14,40.8,40.8,0,0,0,22.4-6.52,5.27,5.27,0,0,1,6,8.7l-.2.13A51.28,51.28,0,0,1,84.23,137Z"/></g></g></g></svg>