<svg id="Layer_1" data-name="Layer 1" xmlns="http://www.w3.org/2000/svg" viewBox="0 0 207.58 207.65"><defs><style>.cls-1{fill:#fff;}</style></defs><title>link</title><path class="cls-1" d="M47.86,207.65a47.4,47.4,0,0,1-44.08-29,48.61,48.61,0,0,1,10.37-53.15C28.84,110.77,43.52,96,58.32,81.36c18.51-18.3,47.7-19,66.47-1.74,2.88,2.64,4.87,5.55,3.55,9.64-1.91,6-8.56,7.4-13.69,2.8-8.1-7.26-17.54-10.73-28.07-8-5.73,1.45-11.82,4.28-16.06,8.27C55,106.9,40.06,122.13,25.15,137.37a32.09,32.09,0,0,0,0,45c12.22,12.25,32.26,12.38,45.07.1C78.27,174.8,86,166.78,94,158.93c4.59-4.55,9-5,12.67-1.48s3,8.31-1.3,12.7c-7.85,7.93-15.69,15.88-23.65,23.7A48.48,48.48,0,0,1,47.86,207.65Z"/><path class="cls-1" d="M159.68,0a47.33,47.33,0,0,1,44.1,28.94A48.6,48.6,0,0,1,193.46,82.1q-22,22.17-44.17,44.17c-18.64,18.45-48.27,19-66.83,1.44-4.37-4.14-4.83-9.12-1.17-12.65a7.68,7.68,0,0,1,11.22.21c11.45,11.61,32.71,13.37,47.31-2,14-14.75,28.82-28.66,42.92-43.28,15-15.59,10.35-41.51-8.81-50.74a32.13,32.13,0,0,0-36.55,5.91c-8,7.76-15.82,15.74-23.75,23.6-4.61,4.57-9,5.07-12.67,1.52s-3.07-8.31,1.26-12.69c7.85-7.93,15.67-15.89,23.64-23.7C135.23,4.66,146.66.35,159.68,0Z"/></svg>