<svg xmlns="http://www.w3.org/2000/svg" viewBox="0 0 150 150"><defs><style>.cls-1{fill:#fefefe;}</style></defs><title>ytW</title><g id="Слой_2" data-name="Слой 2"><g id="Слой_1-2" data-name="Слой 1"><g id="Слой_1-2-2" data-name="Слой 1-2"><path class="cls-1" d="M75,6.59A68.41,68.41,0,1,0,143.41,75h0A68.49,68.49,0,0,0,75,6.59ZM75,150a75,75,0,1,1,75-75,75,75,0,0,1-75,75"/><path class="cls-1" d="M50.31,51.47V99l55-23.92Zm-2.2,53a2.21,2.21,0,0,1-2.2-2.19V48.14A2.21,2.21,0,0,1,48.13,46a2.09,2.09,0,0,1,.85.18L111.72,73a2.2,2.2,0,0,1,0,4L49,104.32a2.07,2.07,0,0,1-.88.18"/></g></g></g></svg>